<svg width="161" height="53" viewBox="0 0 161 53" fill="none" xmlns="http://www.w3.org/2000/svg">
<g filter="url(#filter0_d)">
<path d="M157 19C157 8.50659 148.493 0 138 0H23C12.5066 0 4 8.50659 4 19V26C4 36.4934 12.5066 45 23 45H157V19Z" fill="white"/>
</g>
<path d="M25.7622 26H25.1016V18.7437H20.6758V26H20.0151V18.1797H25.7622V26ZM27.2715 23.0083C27.2715 22.4497 27.3789 21.9466 27.5938 21.499C27.8122 21.0514 28.1183 20.7041 28.5122 20.457C28.9097 20.2064 29.359 20.0811 29.8604 20.0811C30.6338 20.0811 31.2604 20.3532 31.7402 20.8975C32.2201 21.4382 32.46 22.1561 32.46 23.0513V23.1855C32.46 23.7477 32.3507 24.2544 32.1323 24.7056C31.9175 25.1532 31.6131 25.4987 31.2192 25.7422C30.8254 25.9857 30.376 26.1074 29.8711 26.1074C29.1012 26.1074 28.4746 25.8371 27.9912 25.2964C27.5114 24.7521 27.2715 24.0324 27.2715 23.1372V23.0083ZM27.916 23.1855C27.916 23.8802 28.0951 24.4513 28.4531 24.8989C28.8148 25.3429 29.2874 25.5649 29.8711 25.5649C30.4512 25.5649 30.9202 25.3429 31.2783 24.8989C31.64 24.4513 31.8208 23.8623 31.8208 23.1318V23.0083C31.8208 22.5643 31.7384 22.1579 31.5737 21.7891C31.409 21.4202 31.1781 21.1356 30.8809 20.9351C30.5837 20.731 30.2435 20.6289 29.8604 20.6289C29.2874 20.6289 28.8201 20.8545 28.4585 21.3057C28.0968 21.7533 27.916 22.3405 27.916 23.0674V23.1855ZM38.2554 26H37.6108V20.7417H34.4795V26H33.835V20.1885H38.2554V26ZM39.625 23.0083C39.625 22.4497 39.7324 21.9466 39.9473 21.499C40.1657 21.0514 40.4718 20.7041 40.8657 20.457C41.2632 20.2064 41.7126 20.0811 42.2139 20.0811C42.9873 20.0811 43.6139 20.3532 44.0938 20.8975C44.5736 21.4382 44.8135 22.1561 44.8135 23.0513V23.1855C44.8135 23.7477 44.7043 24.2544 44.4858 24.7056C44.271 25.1532 43.9666 25.4987 43.5728 25.7422C43.1789 25.9857 42.7295 26.1074 42.2246 26.1074C41.4548 26.1074 40.8281 25.8371 40.3447 25.2964C39.8649 24.7521 39.625 24.0324 39.625 23.1372V23.0083ZM40.2695 23.1855C40.2695 23.8802 40.4486 24.4513 40.8066 24.8989C41.1683 25.3429 41.641 25.5649 42.2246 25.5649C42.8047 25.5649 43.2738 25.3429 43.6318 24.8989C43.9935 24.4513 44.1743 23.8623 44.1743 23.1318V23.0083C44.1743 22.5643 44.092 22.1579 43.9272 21.7891C43.7625 21.4202 43.5316 21.1356 43.2344 20.9351C42.9372 20.731 42.597 20.6289 42.2139 20.6289C41.641 20.6289 41.1737 20.8545 40.812 21.3057C40.4504 21.7533 40.2695 22.3405 40.2695 23.0674V23.1855ZM50.5283 20.1885V26H49.8838V20.7417H47.5044L47.4023 22.917C47.3594 23.7227 47.2788 24.3385 47.1606 24.7646C47.0425 25.1872 46.867 25.4987 46.6343 25.6992C46.4015 25.8997 46.0918 26 45.7051 26H45.458V25.4307L45.6567 25.4199C46.0256 25.4128 46.2905 25.2337 46.4517 24.8828C46.6128 24.5319 46.7184 23.9053 46.7686 23.0029L46.8867 20.1885H50.5283ZM56.7212 26H56.0767V23.3359H52.9453V26H52.3008V20.1885H52.9453V22.7935H56.0767V20.1885H56.7212V26ZM62.2642 20.1885H62.9087V26H62.2642V21.2251L59.1274 26H58.4883V20.1885H59.1274V24.9688L62.2642 20.1885ZM68.8062 20.7363H66.6899V26H66.0454V20.7363H64.0098V20.1885H68.8062V20.7363ZM70.5732 22.2993H72.249C72.6787 22.2993 73.0547 22.3781 73.377 22.5356C73.7028 22.6896 73.9481 22.9045 74.1128 23.1802C74.2811 23.4559 74.3652 23.7764 74.3652 24.1416C74.3652 24.7038 74.1719 25.1549 73.7852 25.4951C73.402 25.8317 72.8828 26 72.2275 26H69.9341V20.1885H70.5732V22.2993ZM70.5732 22.8472V25.4575H72.2383C72.7002 25.4575 73.0618 25.3411 73.3232 25.1084C73.5882 24.8757 73.7207 24.557 73.7207 24.1523C73.7207 23.7656 73.5918 23.4541 73.334 23.2178C73.0798 22.9779 72.7306 22.8543 72.2866 22.8472H70.5732ZM82.8945 20.1885V26H82.25V20.7417H79.8706L79.7686 22.917C79.7256 23.7227 79.645 24.3385 79.5269 24.7646C79.4087 25.1872 79.2332 25.4987 79.0005 25.6992C78.7677 25.8997 78.458 26 78.0713 26H77.8242V25.4307L78.0229 25.4199C78.3918 25.4128 78.6567 25.2337 78.8179 24.8828C78.979 24.5319 79.0846 23.9053 79.1348 23.0029L79.2529 20.1885H82.8945ZM88.4429 20.1885H89.0874V26H88.4429V21.2251L85.3062 26H84.667V20.1885H85.3062V24.9688L88.4429 20.1885ZM94.9473 26H94.3027V23.5562C93.7728 23.7495 93.2661 23.8462 92.7827 23.8462C92.0129 23.8462 91.4543 23.6779 91.1069 23.3413C90.7596 23.0011 90.5788 22.473 90.5645 21.7568V20.1885H91.2036V21.7246C91.2108 22.2796 91.3325 22.6807 91.5688 22.9277C91.8088 23.1712 92.2134 23.293 92.7827 23.293C93.3019 23.2786 93.8086 23.1855 94.3027 23.0137V20.1885H94.9473V26ZM101.129 26H100.485V23.3359H97.3535V26H96.709V20.1885H97.3535V22.7935H100.485V20.1885H101.129V26ZM103.562 22.2993H105.238C105.668 22.2993 106.044 22.3781 106.366 22.5356C106.692 22.6896 106.937 22.9045 107.102 23.1802C107.27 23.4559 107.354 23.7764 107.354 24.1416C107.354 24.7038 107.161 25.1549 106.774 25.4951C106.391 25.8317 105.872 26 105.217 26H102.923V20.1885H103.562V22.2993ZM103.562 22.8472V25.4575H105.228C105.689 25.4575 106.051 25.3411 106.312 25.1084C106.577 24.8757 106.71 24.557 106.71 24.1523C106.71 23.7656 106.581 23.4541 106.323 23.2178C106.069 22.9779 105.72 22.8543 105.276 22.8472H103.562ZM109.326 26H108.681V20.1885H109.326V26ZM114.933 20.1885H115.578V26H114.933V21.2251L111.796 26H111.157V20.1885H111.796V24.9688L114.933 20.1885ZM114.901 18.0938C114.901 18.5055 114.759 18.8385 114.477 19.0928C114.197 19.347 113.821 19.4741 113.349 19.4741C112.883 19.4741 112.507 19.3488 112.221 19.0981C111.938 18.8439 111.796 18.5091 111.796 18.0938H112.344C112.344 18.391 112.432 18.6183 112.607 18.7759C112.786 18.9334 113.034 19.0122 113.349 19.0122C113.664 19.0122 113.909 18.9299 114.084 18.7651C114.264 18.6004 114.353 18.3766 114.353 18.0938H114.901ZM122.125 25.5649C122.573 25.5649 122.947 25.4396 123.248 25.189C123.552 24.9347 123.717 24.6071 123.742 24.2061H124.359C124.341 24.5605 124.23 24.8846 124.026 25.1782C123.822 25.4683 123.55 25.6956 123.21 25.8604C122.873 26.0251 122.512 26.1074 122.125 26.1074C121.362 26.1074 120.757 25.8424 120.31 25.3125C119.866 24.7826 119.644 24.07 119.644 23.1748V22.9814C119.644 22.4085 119.744 21.9019 119.944 21.4614C120.145 21.021 120.431 20.6808 120.804 20.4409C121.18 20.201 121.618 20.0811 122.12 20.0811C122.757 20.0811 123.282 20.2708 123.693 20.6504C124.109 21.0299 124.331 21.5295 124.359 22.1489H123.742C123.713 21.6942 123.548 21.3271 123.248 21.0479C122.95 20.7686 122.574 20.6289 122.12 20.6289C121.54 20.6289 121.088 20.8384 120.766 21.2573C120.447 21.6763 120.288 22.2635 120.288 23.019V23.207C120.288 23.9482 120.447 24.5265 120.766 24.9419C121.088 25.3573 121.541 25.5649 122.125 25.5649ZM129.784 26H129.14V23.5562C128.61 23.7495 128.103 23.8462 127.62 23.8462C126.85 23.8462 126.291 23.6779 125.944 23.3413C125.597 23.0011 125.416 22.473 125.401 21.7568V20.1885H126.041V21.7246C126.048 22.2796 126.169 22.6807 126.406 22.9277C126.646 23.1712 127.05 23.293 127.62 23.293C128.139 23.2786 128.646 23.1855 129.14 23.0137V20.1885H129.784V26ZM133.753 26.1074C133.259 26.1074 132.812 25.9857 132.411 25.7422C132.013 25.4987 131.703 25.1603 131.481 24.7271C131.259 24.2902 131.148 23.8014 131.148 23.2607V23.0298C131.148 22.4712 131.256 21.9681 131.471 21.5205C131.689 21.0729 131.992 20.722 132.378 20.4678C132.765 20.21 133.184 20.0811 133.635 20.0811C134.341 20.0811 134.899 20.3228 135.311 20.8062C135.726 21.286 135.934 21.943 135.934 22.7773V23.1372H131.788V23.2607C131.788 23.9196 131.976 24.4692 132.352 24.9097C132.731 25.3465 133.207 25.5649 133.78 25.5649C134.124 25.5649 134.427 25.5023 134.688 25.377C134.953 25.2516 135.193 25.0511 135.408 24.7754L135.811 25.0815C135.338 25.7655 134.652 26.1074 133.753 26.1074ZM133.635 20.6289C133.152 20.6289 132.744 20.8062 132.411 21.1606C132.081 21.5151 131.881 21.9914 131.809 22.5894H135.295V22.5195C135.277 21.9609 135.118 21.5062 134.817 21.1553C134.516 20.8044 134.122 20.6289 133.635 20.6289ZM141.294 20.7363H139.178V26H138.534V20.7363H136.498V20.1885H141.294V20.7363Z" fill="black"/>
<defs>
<filter id="filter0_d" x="0" y="0" width="161" height="53" filterUnits="userSpaceOnUse" color-interpolation-filters="sRGB">
<feFlood flood-opacity="0" result="BackgroundImageFix"/>
<feColorMatrix in="SourceAlpha" type="matrix" values="0 0 0 0 0 0 0 0 0 0 0 0 0 0 0 0 0 0 127 0"/>
<feOffset dy="4"/>
<feGaussianBlur stdDeviation="2"/>
<feColorMatrix type="matrix" values="0 0 0 0 1 0 0 0 0 0.309804 0 0 0 0 0.0705882 0 0 0 0.1 0"/>
<feBlend mode="normal" in2="BackgroundImageFix" result="effect1_dropShadow"/>
<feBlend mode="normal" in="SourceGraphic" in2="effect1_dropShadow" result="shape"/>
</filter>
</defs>
</svg>
